<svg width="248" height="29" viewBox="0 0 248 29" fill="none" xmlns="http://www.w3.org/2000/svg">
<path d="M10.7812 1.50255C13.3164 1.50255 15.45 2.36414 17.182 4.08732C18.9139 5.8105 19.7799 7.92647 19.7799 10.4352C19.7799 12.944 18.9139 15.0599 17.182 16.7831C15.45 18.5063 13.3164 19.3679 10.7812 19.3679H6.15007V28.1105H0.954163V1.50255H10.7812ZM10.7812 14.4644C11.8857 14.4644 12.8018 14.0843 13.5298 13.3241C14.2577 12.5385 14.6217 11.5756 14.6217 10.4352C14.6217 9.26954 14.2577 8.30658 13.5298 7.54636C12.8018 6.78613 11.8857 6.40601 10.7812 6.40601H6.15007V14.4644H10.7812Z" fill="white"/>
<path d="M25.3465 6.82414C24.5432 6.82414 23.8404 6.53272 23.238 5.94988C22.6607 5.3417 22.372 4.63215 22.372 3.82124C22.372 3.01033 22.6607 2.30079 23.238 1.69261C23.8404 1.08442 24.5432 0.780334 25.3465 0.780334C26.1748 0.780334 26.8776 1.08442 27.455 1.69261C28.0574 2.30079 28.3586 3.01033 28.3586 3.82124C28.3586 4.63215 28.0574 5.3417 27.455 5.94988C26.8776 6.53272 26.1748 6.82414 25.3465 6.82414ZM22.9368 28.1105V9.10482H27.7938V28.1105H22.9368Z" fill="white"/>
<path d="M43.0077 13.8182H38.7531V21.7246C38.7531 22.3835 38.9162 22.8649 39.2425 23.169C39.5689 23.4731 40.0458 23.6505 40.6733 23.7012C41.3008 23.7265 42.079 23.7139 43.0077 23.6632V28.1105C39.6693 28.4906 37.3098 28.1738 35.9292 27.1602C34.5737 26.1466 33.896 24.3347 33.896 21.7246V13.8182H30.6203V9.10482H33.896V5.26568L38.7531 3.78323V9.10482H43.0077V13.8182Z" fill="white"/>
<path d="M54.805 28.6427C51.9686 28.6427 49.5965 27.6797 47.6888 25.7538C45.8063 23.8279 44.865 21.4458 44.865 18.6077C44.865 15.7695 45.8063 13.3874 47.6888 11.4615C49.5965 9.53562 51.9686 8.57266 54.805 8.57266C56.6374 8.57266 58.3066 9.01613 59.8126 9.90306C61.3187 10.79 62.4608 11.981 63.2389 13.4761L59.0596 15.9469C58.6831 15.1613 58.1058 14.5404 57.3276 14.0843C56.5746 13.6282 55.7212 13.4001 54.7673 13.4001C53.3115 13.4001 52.1066 13.8942 51.1528 14.8825C50.1989 15.8455 49.722 17.0872 49.722 18.6077C49.722 20.1028 50.1989 21.3445 51.1528 22.3328C52.1066 23.2957 53.3115 23.7772 54.7673 23.7772C55.7463 23.7772 56.6123 23.5618 57.3653 23.131C58.1434 22.6749 58.7207 22.054 59.0973 21.2685L63.3142 23.7012C62.4859 25.1963 61.3187 26.4 59.8126 27.3123C58.3066 28.1992 56.6374 28.6427 54.805 28.6427Z" fill="white"/>
<path d="M76.3502 8.57266C78.4085 8.57266 80.1028 9.26954 81.4331 10.6633C82.7886 12.057 83.4663 13.9829 83.4663 16.441V28.1105H78.6093V17.0492C78.6093 15.7821 78.2704 14.8192 77.5927 14.1603C76.915 13.4761 76.0113 13.134 74.8818 13.134C73.6267 13.134 72.6227 13.5268 71.8697 14.3124C71.1166 15.0979 70.7401 16.2763 70.7401 17.8474V28.1105H65.8831V1.50255H70.7401V11.2335C71.9199 9.45959 73.7899 8.57266 76.3502 8.57266Z" fill="white"/>
<path d="M97.6665 1.50255C100.202 1.50255 102.335 2.36414 104.067 4.08732C105.799 5.8105 106.665 7.92647 106.665 10.4352C106.665 12.944 105.799 15.0599 104.067 16.7831C102.335 18.5063 100.202 19.3679 97.6665 19.3679H93.0354V28.1105H87.8395V1.50255H97.6665ZM97.6665 14.4644C98.771 14.4644 99.6872 14.0843 100.415 13.3241C101.143 12.5385 101.507 11.5756 101.507 10.4352C101.507 9.26954 101.143 8.30658 100.415 7.54636C99.6872 6.78613 98.771 6.40601 97.6665 6.40601H93.0354V14.4644H97.6665Z" fill="white"/>
<path d="M112.676 20.6223C113.329 23.0043 115.098 24.1953 117.985 24.1953C119.842 24.1953 121.248 23.5618 122.202 22.2948L126.118 24.5754C124.26 27.2869 121.524 28.6427 117.91 28.6427C114.797 28.6427 112.299 27.6924 110.417 25.7918C108.534 23.8912 107.593 21.4965 107.593 18.6077C107.593 15.7441 108.522 13.3621 110.379 11.4615C112.237 9.53562 114.621 8.57266 117.533 8.57266C120.294 8.57266 122.566 9.53562 124.348 11.4615C126.155 13.3874 127.059 15.7695 127.059 18.6077C127.059 19.2412 126.996 19.9127 126.871 20.6223H112.676ZM112.601 16.8211H122.202C121.926 15.5287 121.348 14.5658 120.47 13.9323C119.616 13.2987 118.637 12.982 117.533 12.982C116.228 12.982 115.148 13.3241 114.295 14.0083C113.442 14.6671 112.877 15.6048 112.601 16.8211Z" fill="white"/>
<path d="M135.307 12.3738C135.758 11.1574 136.499 10.2452 137.528 9.63698C138.582 9.0288 139.749 8.72471 141.03 8.72471V14.1983C139.549 14.021 138.218 14.325 137.039 15.1106C135.884 15.8962 135.307 17.2012 135.307 19.0258V28.1105H130.45V9.10482H135.307V12.3738Z" fill="white"/>
<path d="M153.999 5.6838C151.338 5.48107 150.007 6.55806 150.007 8.91477V9.10482H153.999V13.8182H150.007V28.1105H145.15V13.8182H142.44V9.10482H145.15V8.91477C145.15 6.22863 145.891 4.18869 147.372 2.79494C148.853 1.40119 151.062 0.793005 153.999 0.97039V5.6838Z" fill="white"/>
<path d="M159.63 20.6223C160.283 23.0043 162.052 24.1953 164.939 24.1953C166.796 24.1953 168.202 23.5618 169.156 22.2948L173.072 24.5754C171.214 27.2869 168.478 28.6427 164.864 28.6427C161.751 28.6427 159.254 27.6924 157.371 25.7918C155.488 23.8912 154.547 21.4965 154.547 18.6077C154.547 15.7441 155.476 13.3621 157.333 11.4615C159.191 9.53562 161.575 8.57266 164.487 8.57266C167.248 8.57266 169.52 9.53562 171.302 11.4615C173.109 13.3874 174.013 15.7695 174.013 18.6077C174.013 19.2412 173.95 19.9127 173.825 20.6223H159.63ZM159.555 16.8211H169.156C168.88 15.5287 168.302 14.5658 167.424 13.9323C166.571 13.2987 165.592 12.982 164.487 12.982C163.182 12.982 162.103 13.3241 161.249 14.0083C160.396 14.6671 159.831 15.6048 159.555 16.8211Z" fill="white"/>
<path d="M186.218 28.6427C183.381 28.6427 181.009 27.6797 179.102 25.7538C177.219 23.8279 176.278 21.4458 176.278 18.6077C176.278 15.7695 177.219 13.3874 179.102 11.4615C181.009 9.53562 183.381 8.57266 186.218 8.57266C188.05 8.57266 189.719 9.01613 191.225 9.90306C192.731 10.79 193.873 11.981 194.652 13.4761L190.472 15.9469C190.096 15.1613 189.518 14.5404 188.74 14.0843C187.987 13.6282 187.134 13.4001 186.18 13.4001C184.724 13.4001 183.519 13.8942 182.565 14.8825C181.612 15.8455 181.135 17.0872 181.135 18.6077C181.135 20.1028 181.612 21.3445 182.565 22.3328C183.519 23.2957 184.724 23.7772 186.18 23.7772C187.159 23.7772 188.025 23.5618 188.778 23.131C189.556 22.6749 190.133 22.054 190.51 21.2685L194.727 23.7012C193.899 25.1963 192.731 26.4 191.225 27.3123C189.719 28.1992 188.05 28.6427 186.218 28.6427Z" fill="white"/>
<path d="M208.064 13.8182H203.809V21.7246C203.809 22.3835 203.973 22.8649 204.299 23.169C204.625 23.4731 205.102 23.6505 205.73 23.7012C206.357 23.7265 207.135 23.7139 208.064 23.6632V28.1105C204.726 28.4906 202.366 28.1738 200.986 27.1602C199.63 26.1466 198.952 24.3347 198.952 21.7246V13.8182H195.677V9.10482H198.952V5.26568L203.809 3.78323V9.10482H208.064V13.8182Z" fill="white"/>
<path d="M234.669 27.7118L233.096 23.031H222.647L221.074 27.7118H215.494L224.67 1.707H231.074L240.286 27.7118H234.669ZM224.295 18.2386H231.486L227.89 7.61381L224.295 18.2386Z" fill="#FF5811"/>
<path d="M242.832 1.707H248V27.7118H242.832V1.707Z" fill="#FF5811"/>
</svg>
