<svg width="44" height="45" viewBox="0 0 44 45" fill="none" xmlns="http://www.w3.org/2000/svg">
<path d="M11.8999 24.4371H21.3208V34.3538H11.8999V24.4371Z" fill="#FF5811"/>
<path d="M1.98309 33.3634H11.8998V43.2801H1.98309V33.3634Z" fill="white"/>
<path d="M21.5686 44.2741C25.8345 44.2741 30.0047 42.9946 33.5516 40.5973C37.0986 38.2001 39.8631 34.7928 41.4956 30.8063C43.1281 26.8198 43.5552 22.4332 42.723 18.2011C41.8908 13.9691 39.8365 10.0818 36.8201 7.03063C33.8036 3.97951 29.9604 1.90167 25.7765 1.05987C21.5926 0.218064 17.2558 0.650107 13.3146 2.30136C9.37344 3.95262 6.00486 6.74892 3.63485 10.3367C1.26484 13.9244 -0.000149538 18.1424 -0.000149727 22.4574L10.1427 22.4574C10.1427 20.1716 10.8128 17.9371 12.0683 16.0365C13.3238 14.1359 15.1083 12.6546 17.1961 11.7798C19.2839 10.9051 21.5813 10.6762 23.7977 11.1222C26.0142 11.5681 28.0501 12.6688 29.648 14.2851C31.246 15.9015 32.3342 17.9608 32.7751 20.2027C33.2159 22.4446 32.9897 24.7683 32.1249 26.8802C31.2601 28.992 29.7956 30.797 27.9166 32.0669C26.0376 33.3369 23.8285 34.0147 21.5686 34.0147L21.5686 44.2741Z" fill="white"/>
</svg>
